HIERARCHY
ROOT Bip001_Pelvis
{
  OFFSET 33.2923 95.8902 -28.781
  CHANNELS 6 Xposition Yposition Zposition Zrotation Xrotation Yrotation
  JOINT Bip001_Spine
  {
    OFFSET 1.4188e-005 10.2191 -0.0116013
    CHANNELS 3 Zrotation Xrotation Yrotation
    JOINT Bip001_L_Thigh
    {
      OFFSET 11.0458 -10.2192 0.0116197
      CHANNELS 3 Zrotation Xrotation Yrotation
      JOINT Bip001_L_Calf
      {
        OFFSET -0.707118 -44.0221 0.360014
        CHANNELS 3 Zrotation Xrotation Yrotation
        JOINT Bip001_L_Foot
        {
          OFFSET -0.651902 -40.5938 -3.56146
          CHANNELS 3 Zrotation Xrotation Yrotation
          JOINT Bip001_L_Toe0
          {
            OFFSET 0.0530839 -10.2181 13.1504
            CHANNELS 3 Zrotation Xrotation Yrotation
            End Site
            {
              OFFSET -1.02532e-005 0 7.55606
            }
          }
        }
      }
    }
    JOINT Bip001_R_Thigh
    {
      OFFSET -11.0458 -10.2191 0.0115893
      CHANNELS 3 Zrotation Xrotation Yrotation
      JOINT Bip001_R_Calf
      {
        OFFSET 0.706994 -44.0221 0.35984
        CHANNELS 3 Zrotation Xrotation Yrotation
        JOINT Bip001_R_Foot
        {
          OFFSET 0.651786 -40.5938 -3.5613
          CHANNELS 3 Zrotation Xrotation Yrotation
          JOINT Bip001_R_Toe0
          {
            OFFSET -0.0531479 -10.2181 13.1504
            CHANNELS 3 Zrotation Xrotation Yrotation
            End Site
            {
              OFFSET -1.02894e-005 0 7.55606
            }
          }
        }
      }
    }
    JOINT Bip001_Spine1
    {
      OFFSET 1.87041e-005 14.5736 1.08638
      CHANNELS 3 Zrotation Xrotation Yrotation
      JOINT Bip001_Spine2
      {
        OFFSET 2.24614e-005 14.5058 -1.69078
        CHANNELS 3 Zrotation Xrotation Yrotation
        JOINT Bip001_Neck
        {
          OFFSET 2.20278e-005 15.3945 -0.489414
          CHANNELS 3 Zrotation Xrotation Yrotation
          JOINT Bip001_L_Clavicle
          {
            OFFSET 6.06036 -0.000579998 0.00836775
            CHANNELS 3 Zrotation Xrotation Yrotation
            JOINT Bip001_L_UpperArm
            {
              OFFSET 11.5509 -0.0600302 0.00193952
              CHANNELS 3 Zrotation Xrotation Yrotation
              JOINT Bip001_L_Forearm
              {
                OFFSET 25.9523 0.0806089 -2.15551
                CHANNELS 3 Zrotation Xrotation Yrotation
                JOINT Bip001_L_Hand
                {
                  OFFSET 32.2476 0.153767 1.63968
                  CHANNELS 3 Zrotation Xrotation Yrotation
                  JOINT Bip001_L_Finger0
                  {
                    OFFSET 6.04639 -2.20976 5.90322
                    CHANNELS 3 Zrotation Xrotation Yrotation
                    End Site
                    {
                      OFFSET 4.22376 -1.43895 0.606486
                    }
                  }
                  JOINT Bip001_L_Finger1
                  {
                    OFFSET 11.0826 -0.704819 -0.198153
                    CHANNELS 3 Zrotation Xrotation Yrotation
                    End Site
                    {
                      OFFSET 6.20028 -0.397518 -0.0787166
                    }
                  }
                }
              }
            }
          }
          JOINT Bip001_R_Clavicle
          {
            OFFSET -6.06036 -0.000563197 0.00835105
            CHANNELS 3 Zrotation Xrotation Yrotation
            JOINT Bip001_R_UpperArm
            {
              OFFSET -11.5509 -0.0599978 0.00190698
              CHANNELS 3 Zrotation Xrotation Yrotation
              JOINT Bip001_R_Forearm
              {
                OFFSET -25.9523 0.080682 -2.1559
                CHANNELS 3 Zrotation Xrotation Yrotation
                JOINT Bip001_R_Hand
                {
                  OFFSET -32.2476 0.153858 1.63991
                  CHANNELS 3 Zrotation Xrotation Yrotation
                  JOINT Bip001_R_Finger0
                  {
                    OFFSET -6.04641 -2.20974 5.90321
                    CHANNELS 3 Zrotation Xrotation Yrotation
                    End Site
                    {
                      OFFSET -4.22376 -1.43894 0.606474
                    }
                  }
                  JOINT Bip001_R_Finger1
                  {
                    OFFSET -11.0826 -0.704789 -0.198184
                    CHANNELS 3 Zrotation Xrotation Yrotation
                    End Site
                    {
                      OFFSET -6.20028 -0.397501 -0.0787338
                    }
                  }
                }
              }
            }
          }
          JOINT Bip001_Head
          {
            OFFSET 1.09673e-005 11.2744 2.05948
            CHANNELS 3 Zrotation Xrotation Yrotation
            End Site
            {
              OFFSET 2.89576e-005 20.8808 -2.77728e-005
            }
          }
        }
      }
    }
  }
}
MOTION
Frames:	10
Frame Time:	0.04
32.6534 95.8976 -28.371 0.335716 -0.780356 1.43305 -0.427573 2.47274 -0.332903 5.24127 -2.60774 6.45469 -0.510862 6.75201 -11.8582 5.51336 -1.19837 -0.219056 -3.07063 -5.28126 5.08013 -2.85141 -2.92669 -1.24188 0.339288 10.3796 -0.0587231 -5.50688 -9.72431 2.27568 2.09613 -7.14655 2.18083 -0.841446 4.94787 -0.650286 -0.841762 4.94786 -0.649267 -1.85178 -9.78078 -1.73048 -23.6075 10.3728 2.31907 -48.6348 39.6898 -1.9833 12.9971 1.36783 -25.133 8.05136 1.13307 -2.18079 -9.54166e-015 0 3.18055e-015 -3.18055e-015 3.18056e-015 -0 24.4258 18.2445 23.6224 59.34 -23.8956 45.7277 -31.8614 -6.45469 100.11 -43.2188 16.5052 9.33003 -1.59028e-015 0 -7.95139e-016 -1.59028e-015 -3.18056e-015 -7.95139e-016 0.320449 22.9148 -2.10062 
32.5259 95.8889 -28.391 0.0802084 -0.68136 1.67128 -0.363512 2.45202 -0.338024 5.65851 -2.99068 6.73031 -0.661373 7.30523 -12.2678 5.41723 -1.54254 -0.197158 -3.07625 -5.17402 5.10218 -2.48084 -2.85092 -0.891243 0.281388 10.0855 0.06721 -5.71927 -9.48721 1.67461 2.11113 -7.17163 2.18089 -0.712613 4.90034 -0.660145 -0.713024 4.90034 -0.660808 -2.57038 -10.0821 -1.66611 -22.9997 10.5809 2.79845 -48.4932 39.5898 -2.30632 12.987 1.39054 -25.1858 8.11593 1.22783 -2.1753 1.76556e-031 3.18055e-015 -3.18055e-015 3.18055e-015 0 -4.77083e-015 23.4036 18.5963 25.5507 58.6951 -21.6305 48.6221 -33.5197 -6.21811 97.0934 -46.3941 15.8582 10.3664 7.95139e-016 0 7.15625e-015 7.95139e-016 3.18056e-015 5.96354e-015 0.948913 23.1928 -2.42813 
32.48 95.8869 -28.3626 0.0722275 -0.718107 1.77537 -0.370583 2.45784 -0.296178 5.70497 -2.96646 6.9363 -0.629734 7.30516 -12.5576 5.51357 -1.54598 -0.200193 -3.01631 -5.19476 5.03774 -2.40252 -2.79785 -0.760286 0.295457 10.0942 0.0659228 -5.83266 -9.46083 1.3717 2.11467 -7.20182 2.18027 -0.729441 4.91754 -0.577221 -0.729441 4.91754 -0.577221 -2.88261 -9.80768 -1.79733 -23.0343 10.206 3.09775 -48.0996 39.3217 -2.50727 13.0129 1.60005 -25.2765 8.30708 1.15964 -2.18789 -3.18055e-015 3.18055e-015 -1.59028e-015 -8.82782e-032 3.18056e-015 1.59028e-015 22.7571 18.638 27.6093 56.2317 -19.203 50.5977 -34.7978 -5.54822 92.6789 -48.1044 15.5382 10.9059 -1.59028e-015 6.36111e-015 -1.19271e-015 -2.38542e-015 6.36111e-015 3.97569e-016 1.26297 22.9426 -2.75324 
32.4681 95.8796 -28.3174 0.174626 -0.842662 1.8708 -0.373836 2.49444 -0.272836 5.51934 -2.74077 7.25798 -0.522703 7.0017 -13.1582 6.13832 -0.905691 -0.260597 -2.77384 -5.6226 4.84291 -2.48998 -2.74573 -0.724249 0.279848 10.2833 -0.0361393 -5.82117 -9.58284 1.40178 2.11093 -7.1488 2.15181 -0.738119 4.99059 -0.530103 -0.737996 4.99059 -0.530163 -3.79923 -9.81048 -1.81761 -22.2366 10.1392 3.4561 -48.1205 39.2785 -2.85032 13.057 1.55868 -25.1325 8.56203 1.28736 -2.29874 3.18055e-015 -6.36111e-015 -1.59028e-015 3.18055e-015 -3.18056e-015 -1.59028e-015 21.8632 18.4638 29.0722 51.5124 -15.0387 50.7514 -38.3549 -6.40192 85.079 -47.8446 14.8613 11.9171 -7.95139e-016 6.36111e-015 -2.38542e-015 -7.95139e-016 0 -3.18055e-015 2.29262 23.0632 -3.38822 
32.4233 95.8844 -28.3016 0.196487 -0.846752 2.1181 -0.374781 2.47362 -0.261258 5.58274 -2.74895 7.08517 -0.546459 7.00615 -13.1996 5.51103 -1.29994 -0.210937 -3.01179 -5.32385 5.02409 -2.45617 -2.62709 -0.728754 0.29714 10.1978 -0.171306 -5.88606 -9.574 1.26014 2.11709 -7.1919 2.17169 -0.739279 4.94888 -0.507024 -0.739281 4.94889 -0.507025 -4.2258 -9.5715 -2.01593 -21.7875 9.75739 3.88743 -48.4189 39.2278 -2.70302 13.2785 1.96036 -25.2457 8.56004 0.97784 -2.47262 -3.18055e-015 0 -3.18055e-015 -3.18055e-015 -3.18056e-015 -6.36111e-015 20.7563 18.0631 30.2039 41.5813 -8.14773 48.2665 -40.8064 -12.3991 72.9129 -46.7068 16.427 11.2872 1.59028e-015 6.36111e-015 -0 -1.59028e-015 9.54167e-015 7.95139e-016 2.73414 23.1306 -3.83651 
32.3343 95.8873 -28.3278 0.0506575 -0.742878 2.51322 -0.347668 2.45193 -0.323914 5.80794 -3.02075 6.91448 -0.624525 7.20415 -13.3273 5.73964 -1.22824 -0.224899 -2.92602 -5.38781 4.98983 -2.22795 -2.54923 -0.565265 0.299996 9.93156 -0.355101 -5.97722 -9.42835 0.96307 2.11585 -7.1748 2.18059 -0.682174 4.90618 -0.633408 -0.681476 4.90618 -0.63365 -5.03513 -9.54474 -2.03056 -20.9834 9.57981 4.47909 -48.6327 39.7624 -2.79548 13.4433 1.61574 -25.0572 8.78689 1.07856 -2.5034 -3.18055e-015 -3.18055e-015 3.18055e-015 -3.18055e-015 3.18056e-015 3.18055e-015 20.5814 17.9961 31.4216 39.6154 -5.78917 50.1619 -47.02 -11.3221 65.1841 -45.0226 16.0954 12.7156 0 3.18055e-015 -0 4.41391e-032 3.18056e-015 -7.95139e-016 3.64863 23.2993 -4.37754 
32.2622 95.8905 -28.3609 -0.0286121 -0.621222 2.89935 -0.3408 2.42792 -0.364444 5.93179 -3.27248 6.59137 -0.64792 7.2881 -13.3754 5.83995 -1.08899 -0.237862 -2.88551 -5.49338 4.93608 -2.08812 -2.52601 -0.478934 0.323115 9.7511 -0.487925 -6.03326 -9.32167 0.721601 2.01515 -7.16506 2.48401 -0.664831 4.85792 -0.715557 -0.668525 4.85792 -0.715468 -5.2673 -9.37077 -2.17982 -20.671 9.2394 4.98932 -48.6713 39.6358 -2.66888 13.231 1.6681 -25.4246 8.81085 1.23974 -2.14094 -0 0 3.18055e-015 3.18055e-015 0 6.36111e-015 20.9662 17.8859 31.3732 43.7432 -7.30993 51.5211 -47.767 -9.22552 67.6673 -43.6277 15.0512 13.7976 -0 0 1.59028e-015 -8.82782e-032 3.18056e-015 1.59028e-015 3.9961 23.3015 -4.74196 
32.2106 95.8932 -28.3795 -0.0658814 -0.612761 3.23443 -0.340749 2.41041 -0.397209 6.0509 -3.39407 6.66387 -0.626223 7.40687 -13.6963 5.23554 -1.42953 -0.194713 -3.08859 -5.26174 5.0586 -2.00474 -2.41387 -0.618549 0.34185 9.61917 -0.55997 -6.0653 -9.28546 0.638352 2.00138 -7.15834 2.48528 -0.673391 4.82 -0.780207 -0.673392 4.82001 -0.780206 -5.1325 -8.67756 -2.37607 -20.733 8.56314 4.77821 -49.0165 38.875 -2.12938 13.1651 2.35752 -25.4476 9.11621 1.02605 -2.34458 -3.18055e-015 -6.36111e-015 -3.18055e-015 -6.36111e-015 -6.36111e-015 -3.18055e-015 21.4434 17.2666 30.5908 45.8151 -8.47197 51.289 -44.6702 -9.28101 72.5624 -45.9782 14.5029 13.2007 -2.20695e-031 -3.18055e-015 -3.97569e-015 1.59028e-015 -3.18056e-015 -3.18055e-015 3.88048 22.871 -4.86232 
32.2023 95.8945 -28.413 0.0521569 -0.701237 3.17474 -0.340407 2.43589 -0.438597 5.91138 -3.24756 6.86526 -0.593056 7.21955 -13.8788 5.42098 -1.16907 -0.216387 -3.0206 -5.3658 5.04265 -2.13348 -2.49318 -0.615573 0.360856 9.85661 -0.546705 -6.05082 -9.39194 0.691007 1.99188 -7.09104 2.46521 -0.667859 4.87431 -0.863781 -0.667476 4.87432 -0.863792 -5.73375 -7.97512 -2.11355 -20.0245 8.12379 3.96919 -49.3648 38.4141 -1.78488 13.1255 2.83984 -25.1379 9.06106 0.964927 -2.39828 -6.36111e-015 0 -0 -6.36111e-015 3.18056e-015 -3.18055e-015 22.1564 16.4039 30.0243 44.0766 -8.215 51.2122 -43.8344 -9.45356 72.7801 -49.2713 15.6945 11.7481 -1.59028e-015 -9.54166e-015 -1.19271e-015 -7.95139e-016 -9.54167e-015 -1.59028e-015 4.31251 22.2096 -4.94403 
32.2132 95.8937 -28.4806 0.133472 -0.846706 2.76708 -0.341637 2.49975 -0.440367 5.79355 -3.07241 7.06216 -0.544868 7.11559 -13.6783 5.38688 -1.13209 -0.21992 -2.99657 -5.3628 5.03505 -2.26198 -2.65839 -0.617965 0.361674 10.1535 -0.528355 -5.91512 -9.51236 1.0619 1.97839 -7.05429 2.4587 -0.674455 5.00202 -0.866837 -0.675347 5.00203 -0.866801 -6.57036 -7.68433 -1.67176 -19.0471 8.15097 3.06597 -49.4322 39.2145 -1.55599 13.1848 2.38399 -24.8422 8.17787 0.778037 -2.29853 3.18055e-015 -3.18055e-015 3.18055e-015 3.53113e-031 -3.18056e-015 6.36111e-015 23.0014 15.8779 29.4689 43.9267 -8.77591 51.2313 -42.4235 -9.14176 73.8744 -50.0466 15.1454 11.5573 -7.95139e-016 -6.36111e-015 7.95139e-016 -7.95139e-016 -9.54167e-015 7.95139e-016 5.04116 21.8391 -5.01135 
